<?xml version="1.0" standalone="no"?><!DOCTYPE svg PUBLIC "-//W3C//DTD SVG 1.1//EN" "http://www.w3.org/Graphics/SVG/1.1/DTD/svg11.dtd"><svg t="1510133502681" class="icon" style="" viewBox="0 0 1024 1024" version="1.1" xmlns="http://www.w3.org/2000/svg" p-id="3195" xmlns:xlink="http://www.w3.org/1999/xlink" width="200" height="200"><defs><style type="text/css"></style></defs><path d="M862.040755 639.330836 998.40267 639.330836 998.40267 684.180439 862.040755 684.180439 862.040755 639.330836ZM794.417679 480.833024 998.40267 480.833024 998.40267 526.200658 794.417679 526.200658 794.417679 480.833024ZM748.671483 322.913016 998.40267 322.913016 998.40267 368.300575 748.671483 368.300575 748.671483 322.913016ZM87.862125 885.415877 839.307128 885.415877 855.007478 875.433802C856.481874 867.623475 858.035971 854.513285 854.868006 841.462868 833.210291 815.401884 773.796027 782.885425 716.214797 751.385103 621.355203 699.502226 539.366705 654.672548 538.310715 601.913001L538.151322 555.907789 545.563162 549.233149C599.279076 500.936645 628.926436 433.074476 628.926436 358.179028 628.926436 219.625442 601.88916 139.410207 463.634437 139.390282 325.379715 139.410207 298.302589 219.625442 298.302589 358.179028 298.302589 433.0944 327.9101 500.936645 381.645939 549.233149L389.057779 555.907789 388.978081 601.434816C387.862321 654.672548 305.933596 699.502226 211.054076 751.385103 153.452923 782.885425 93.978885 815.401884 72.341094 841.462868 69.17313 854.493361 70.707301 867.6434 72.221548 875.433802L87.862125 885.415877ZM852.397394 930.026386 74.751934 930.026386 33.767648 903.945475 31.297034 896.41409C30.061728 892.70817 19.641319 859.295117 30.480138 824.586985L31.575975 821.08031 33.767648 818.051814C59.091434 783.483154 122.410862 748.894566 189.416285 712.233853 250.803056 678.661407 343.530752 627.954061 344.128481 600.936709L344.188255 575.433605C285.590886 519.087683 253.472912 442.339274 253.472912 358.13918 253.472912 227.894026 278.438062 94.739924 463.594588 94.72 648.771039 94.739924 673.716265 227.894026 673.716265 358.13918 673.716265 442.359199 641.538519 519.107607 583.000922 575.393756L583.08062 601.414892C583.6385 627.914212 676.406044 678.661407 737.772892 712.233853 804.75839 748.914491 868.077819 783.483154 893.361756 818.051814L895.573353 821.08031 896.709038 824.586985C907.508009 859.295117 897.107525 892.70817 895.872218 896.41409L893.381681 903.945475 852.397394 930.026386Z" p-id="3196"></path></svg>