<?xml version="1.0" standalone="no"?><!DOCTYPE svg PUBLIC "-//W3C//DTD SVG 1.1//EN" "http://www.w3.org/Graphics/SVG/1.1/DTD/svg11.dtd"><svg t="1510133619772" class="icon" style="" viewBox="0 0 1024 1024" version="1.1" xmlns="http://www.w3.org/2000/svg" p-id="6176" xmlns:xlink="http://www.w3.org/1999/xlink" width="200" height="200"><defs><style type="text/css"></style></defs><path d="M0.809674 1023.261767s-7.620465-115.307163 24.290233-150.932837c42.436465-47.34214 133.334326-89.064186 222.922419-120.689116 89.635721-31.50586 140.502326-82.03907 140.502325-110.47293 0-28.386233-19.979907-123.022884-57.058232-132.477024-37.078326-9.477953-58.725209-116.783628-58.72521-148.36093 0-31.553488 18.574884-22.051721 18.574884-22.051721s-27.88614-90.016744 3.072-192.512C339.348837-3.095814 510.976 0.714419 511.618977 0.714419c0.619163 0 178.699907-3.834047 218.540651 145.026976 27.695628 103.400186 3.072 192.512 3.072 192.512s18.527256-9.501767 18.527256 22.075535c0 31.553488-21.599256 138.835349-58.629954 148.36093-37.030698 9.430326-60.082605 104.066977-60.082604 132.45321 0 28.43386 53.938605 78.96707 143.407627 110.47293 89.469023 31.62493 199.870512 76.347535 222.56521 120.689116 21.718326 42.365023 24.266419 150.932837 24.266418 150.932837H0.809674z m979.539349-40.555162c-3.072-36.101953-8.954047-75.275907-17.479442-91.921861-1.547907-3.000558-12.04986-19.384558-68.179348-47.270697-33.220465-16.50307-76.347535-34.053953-131.738791-53.629024-45.984744-16.193488-86.611349-38.054698-117.450419-63.226046-24.218791-19.765581-53.081302-50.604651-53.081302-85.492093 0-21.432558 7.668093-57.296372 18.622512-87.254326 16.979349-46.365767 39.936-74.418605 68.25079-83.444093 3.762605-4.286512 18.860651-17.193674 29.886512-46.19907 6.048744-15.907721 11.50214-29.434047 12.16893-48.651907 0.571535-15.717209-1.571721-17.741395-6.596465-19.956093-8.382512-3.691163-26.409674 0.452465-26.409674 0.452465 0.23814-0.78586 27.147907-108.186791 2.571907-199.870511-12.311814-46.056186-43.24614-79.109953-91.921861-98.18493a256.666791 256.666791 0 0 0-85.920744-16.765024h-0.476279l-0.976372 0.047628-1.000186-0.023814h-0.404838c-4.238884 0-42.531721 0.476279-83.039255 16.645954-48.175628 19.241674-79.776744 52.724093-93.922233 99.518511-26.38586 87.397209-3.953116 166.102326-3.119628 168.888559l9.525582 30.005581s-48.342326-18.098605-15.36 65.321674c11.597395 29.338791 17.193674 44.508279 20.956279 48.770977 28.648186 9.09693 51.2 37.459349 67.107721 84.349023 9.858977 29.124465 16.741209 64.63107 16.741209 86.349396 0 34.816-27.76707 65.488372-51.057116 85.111069-30.243721 25.457116-70.560744 47.461209-116.497861 63.583256-101.876093 35.95907-175.104 74.847256-206.181209 109.544186-0.095256 0.095256-10.47814 12.240372-13.812093 63.488-0.428651 6.858419-0.690605 13.55014-0.809675 19.81321h939.603349z" p-id="6177"></path></svg>