<?xml version="1.0" standalone="no"?><!DOCTYPE svg PUBLIC "-//W3C//DTD SVG 1.1//EN" "http://www.w3.org/Graphics/SVG/1.1/DTD/svg11.dtd"><svg t="1510133533078" class="icon" style="" viewBox="0 0 1024 1024" version="1.1" xmlns="http://www.w3.org/2000/svg" p-id="3858" xmlns:xlink="http://www.w3.org/1999/xlink" width="200" height="200"><defs><style type="text/css"></style></defs><path d="M512.08192 1023.7952C229.376 1023.7952 0.18432 794.60352 0.18432 511.8976 0.18432 229.19168 229.376 0 512.08192 0 794.80832 0 1023.97952 229.19168 1023.97952 511.8976 1023.97952 794.60352 794.80832 1023.7952 512.08192 1023.7952ZM512.08192 40.96C252.0064 40.96 41.14432 251.8016 41.14432 511.8976 41.14432 771.9936 252.0064 982.8352 512.08192 982.8352 772.17792 982.8352 983.01952 771.9936 983.01952 511.8976 983.01952 251.8016 772.17792 40.96 512.08192 40.96ZM251.33056 772.66944 425.10336 425.10336 772.66944 251.33056 598.89664 598.89664 251.33056 772.66944ZM556.19584 469.72928C531.70176 446.32064 492.01152 446.32064 467.51744 469.72928 443.04384 493.11744 443.04384 531.02592 467.51744 554.43456 492.01152 577.82272 531.70176 577.82272 556.19584 554.43456 580.68992 531.02592 580.68992 493.11744 556.19584 469.72928Z" p-id="3859"></path></svg>